<mxfile host="app.diagrams.net" modified="2021-09-18T07:36:52.614Z" agent="5.0 (Windows NT 10.0; Win64; x64) AppleWebKit/537.36 (KHTML, like Gecko) Chrome/93.0.4577.82 Safari/537.36" etag="J9WCDpUnDgMpZNoQ44fK" version="15.2.5" type="github">
  <diagram name="Page-1" id="e7e014a7-5840-1c2e-5031-d8a46d1fe8dd">
    <mxGraphModel dx="1128" dy="597" grid="1" gridSize="10" guides="1" tooltips="1" connect="1" arrows="1" fold="1" page="1" pageScale="1" pageWidth="1169" pageHeight="826" background="none" math="0" shadow="0">
      <root>
        <mxCell id="0" />
        <mxCell id="1" parent="0" />
        <mxCell id="2" value="广告商" style="swimlane;whiteSpace=wrap" parent="1" vertex="1">
          <mxGeometry x="159.5" y="128" width="285.5" height="572" as="geometry" />
        </mxCell>
        <mxCell id="EuBQ1Uk0UbVm1_WswHTq-43" style="edgeStyle=orthogonalEdgeStyle;rounded=0;orthogonalLoop=1;jettySize=auto;html=1;" parent="2" source="EuBQ1Uk0UbVm1_WswHTq-41" target="EuBQ1Uk0UbVm1_WswHTq-42" edge="1">
          <mxGeometry relative="1" as="geometry" />
        </mxCell>
        <mxCell id="EuBQ1Uk0UbVm1_WswHTq-41" value="开始" style="ellipse;whiteSpace=wrap;html=1;aspect=fixed;" parent="2" vertex="1">
          <mxGeometry x="115.5" y="32" width="38" height="38" as="geometry" />
        </mxCell>
        <mxCell id="EuBQ1Uk0UbVm1_WswHTq-42" value="广告意向" style="rounded=1;whiteSpace=wrap;html=1;" parent="2" vertex="1">
          <mxGeometry x="81.75" y="102" width="105.5" height="28" as="geometry" />
        </mxCell>
        <mxCell id="EuBQ1Uk0UbVm1_WswHTq-55" value="打款" style="rounded=1;whiteSpace=wrap;html=1;" parent="2" vertex="1">
          <mxGeometry x="70.5" y="192" width="104.5" height="28" as="geometry" />
        </mxCell>
        <mxCell id="EuBQ1Uk0UbVm1_WswHTq-70" style="edgeStyle=orthogonalEdgeStyle;rounded=0;orthogonalLoop=1;jettySize=auto;html=1;fillColor=#d5e8d4;strokeColor=#82b366;" parent="2" edge="1">
          <mxGeometry relative="1" as="geometry">
            <mxPoint x="187.25" y="115.71000000000001" as="sourcePoint" />
            <mxPoint x="380.5" y="115.71000000000001" as="targetPoint" />
          </mxGeometry>
        </mxCell>
        <mxCell id="3" value="缙添" style="swimlane;whiteSpace=wrap;swimlaneLine=1;" parent="1" vertex="1">
          <mxGeometry x="444.5" y="128" width="280" height="572" as="geometry">
            <mxRectangle x="444.5" y="128" width="60" height="23" as="alternateBounds" />
          </mxGeometry>
        </mxCell>
        <mxCell id="EuBQ1Uk0UbVm1_WswHTq-44" value="录入系统" style="rounded=1;whiteSpace=wrap;html=1;" parent="3" vertex="1">
          <mxGeometry x="95.5" y="102" width="105.5" height="28" as="geometry" />
        </mxCell>
        <mxCell id="EuBQ1Uk0UbVm1_WswHTq-48" value="沟通广告需求及广告费用，签订合同" style="text;html=1;strokeColor=none;fillColor=none;align=center;verticalAlign=middle;whiteSpace=wrap;rounded=0;" parent="3" vertex="1">
          <mxGeometry x="-74.5" y="82" width="135.5" height="32" as="geometry" />
        </mxCell>
        <mxCell id="eJH0rVVVb4Bd_16MOeba-5" style="edgeStyle=orthogonalEdgeStyle;rounded=0;orthogonalLoop=1;jettySize=auto;html=1;entryX=0.5;entryY=0;entryDx=0;entryDy=0;" edge="1" parent="3" source="EuBQ1Uk0UbVm1_WswHTq-52" target="EuBQ1Uk0UbVm1_WswHTq-59">
          <mxGeometry relative="1" as="geometry" />
        </mxCell>
        <mxCell id="EuBQ1Uk0UbVm1_WswHTq-52" value="广告验收" style="rounded=1;whiteSpace=wrap;html=1;" parent="3" vertex="1">
          <mxGeometry x="155.5" y="192" width="104.5" height="28" as="geometry" />
        </mxCell>
        <mxCell id="EuBQ1Uk0UbVm1_WswHTq-60" style="edgeStyle=orthogonalEdgeStyle;rounded=0;orthogonalLoop=1;jettySize=auto;html=1;entryX=0.5;entryY=0;entryDx=0;entryDy=0;fillColor=#d5e8d4;strokeColor=#82b366;" parent="3" source="EuBQ1Uk0UbVm1_WswHTq-57" target="EuBQ1Uk0UbVm1_WswHTq-59" edge="1">
          <mxGeometry relative="1" as="geometry" />
        </mxCell>
        <mxCell id="EuBQ1Uk0UbVm1_WswHTq-57" value="收款认领、开票" style="rounded=1;whiteSpace=wrap;html=1;" parent="3" vertex="1">
          <mxGeometry x="26.25" y="192" width="104.5" height="28" as="geometry" />
        </mxCell>
        <mxCell id="EuBQ1Uk0UbVm1_WswHTq-59" value="确认红人收益，创建结算单" style="rounded=1;whiteSpace=wrap;html=1;" parent="3" vertex="1">
          <mxGeometry x="63.75" y="312" width="169" height="28" as="geometry" />
        </mxCell>
        <mxCell id="EuBQ1Uk0UbVm1_WswHTq-66" style="edgeStyle=orthogonalEdgeStyle;rounded=0;orthogonalLoop=1;jettySize=auto;html=1;entryX=0.5;entryY=0;entryDx=0;entryDy=0;fillColor=#d5e8d4;strokeColor=#82b366;" parent="3" source="EuBQ1Uk0UbVm1_WswHTq-62" target="EuBQ1Uk0UbVm1_WswHTq-65" edge="1">
          <mxGeometry relative="1" as="geometry" />
        </mxCell>
        <mxCell id="EuBQ1Uk0UbVm1_WswHTq-62" value="申请付款" style="rounded=1;whiteSpace=wrap;html=1;" parent="3" vertex="1">
          <mxGeometry x="95.5" y="392" width="114.5" height="28" as="geometry" />
        </mxCell>
        <mxCell id="EuBQ1Uk0UbVm1_WswHTq-65" value="结束" style="ellipse;whiteSpace=wrap;html=1;aspect=fixed;" parent="3" vertex="1">
          <mxGeometry x="130.75" y="462" width="44" height="44" as="geometry" />
        </mxCell>
        <mxCell id="4" value="红人" style="swimlane;whiteSpace=wrap;sketch=0;rounded=0;shadow=0;" parent="1" vertex="1">
          <mxGeometry x="724.5" y="128" width="280" height="572" as="geometry" />
        </mxCell>
        <mxCell id="EuBQ1Uk0UbVm1_WswHTq-46" value="发布广告" style="rounded=1;whiteSpace=wrap;html=1;" parent="4" vertex="1">
          <mxGeometry x="95.5" y="102" width="105.5" height="28" as="geometry" />
        </mxCell>
        <mxCell id="EuBQ1Uk0UbVm1_WswHTq-50" value="沟通广告需求" style="text;html=1;strokeColor=none;fillColor=none;align=center;verticalAlign=middle;whiteSpace=wrap;rounded=0;" parent="4" vertex="1">
          <mxGeometry x="-64.5" y="82" width="135.5" height="32" as="geometry" />
        </mxCell>
        <mxCell id="EuBQ1Uk0UbVm1_WswHTq-61" value="红人确认结算单，开票" style="rounded=1;whiteSpace=wrap;html=1;" parent="4" vertex="1">
          <mxGeometry x="83.25" y="312" width="130" height="28" as="geometry" />
        </mxCell>
        <mxCell id="EuBQ1Uk0UbVm1_WswHTq-45" style="edgeStyle=orthogonalEdgeStyle;rounded=0;orthogonalLoop=1;jettySize=auto;html=1;fillColor=#d5e8d4;strokeColor=#82b366;" parent="1" source="EuBQ1Uk0UbVm1_WswHTq-42" target="EuBQ1Uk0UbVm1_WswHTq-44" edge="1">
          <mxGeometry relative="1" as="geometry" />
        </mxCell>
        <mxCell id="EuBQ1Uk0UbVm1_WswHTq-47" style="edgeStyle=orthogonalEdgeStyle;rounded=0;orthogonalLoop=1;jettySize=auto;html=1;entryX=0;entryY=0.5;entryDx=0;entryDy=0;" parent="1" source="EuBQ1Uk0UbVm1_WswHTq-44" target="EuBQ1Uk0UbVm1_WswHTq-46" edge="1">
          <mxGeometry relative="1" as="geometry" />
        </mxCell>
        <mxCell id="EuBQ1Uk0UbVm1_WswHTq-54" style="edgeStyle=orthogonalEdgeStyle;rounded=0;orthogonalLoop=1;jettySize=auto;html=1;entryX=1;entryY=0.5;entryDx=0;entryDy=0;fillColor=#d5e8d4;strokeColor=#82b366;" parent="1" source="EuBQ1Uk0UbVm1_WswHTq-46" target="EuBQ1Uk0UbVm1_WswHTq-52" edge="1">
          <mxGeometry relative="1" as="geometry">
            <Array as="points">
              <mxPoint x="873" y="334" />
            </Array>
          </mxGeometry>
        </mxCell>
        <mxCell id="EuBQ1Uk0UbVm1_WswHTq-58" style="edgeStyle=orthogonalEdgeStyle;rounded=0;orthogonalLoop=1;jettySize=auto;html=1;entryX=0;entryY=0.5;entryDx=0;entryDy=0;fillColor=#d5e8d4;strokeColor=#82b366;" parent="1" source="EuBQ1Uk0UbVm1_WswHTq-55" target="EuBQ1Uk0UbVm1_WswHTq-57" edge="1">
          <mxGeometry relative="1" as="geometry" />
        </mxCell>
        <mxCell id="EuBQ1Uk0UbVm1_WswHTq-63" style="edgeStyle=orthogonalEdgeStyle;rounded=0;orthogonalLoop=1;jettySize=auto;html=1;entryX=1;entryY=0.5;entryDx=0;entryDy=0;fillColor=#d5e8d4;strokeColor=#82b366;" parent="1" source="EuBQ1Uk0UbVm1_WswHTq-61" target="EuBQ1Uk0UbVm1_WswHTq-62" edge="1">
          <mxGeometry relative="1" as="geometry">
            <Array as="points">
              <mxPoint x="877" y="534" />
            </Array>
          </mxGeometry>
        </mxCell>
        <mxCell id="EuBQ1Uk0UbVm1_WswHTq-64" style="edgeStyle=orthogonalEdgeStyle;rounded=0;orthogonalLoop=1;jettySize=auto;html=1;entryX=0;entryY=0.5;entryDx=0;entryDy=0;fillColor=#d5e8d4;strokeColor=#82b366;" parent="1" source="EuBQ1Uk0UbVm1_WswHTq-59" target="EuBQ1Uk0UbVm1_WswHTq-61" edge="1">
          <mxGeometry relative="1" as="geometry" />
        </mxCell>
        <mxCell id="EuBQ1Uk0UbVm1_WswHTq-71" style="edgeStyle=orthogonalEdgeStyle;rounded=0;orthogonalLoop=1;jettySize=auto;html=1;entryX=0;entryY=0.5;entryDx=0;entryDy=0;fillColor=#d5e8d4;strokeColor=#82b366;" parent="1" edge="1">
          <mxGeometry relative="1" as="geometry">
            <mxPoint x="645.5" y="244" as="sourcePoint" />
            <mxPoint x="820" y="244" as="targetPoint" />
          </mxGeometry>
        </mxCell>
      </root>
    </mxGraphModel>
  </diagram>
</mxfile>
